<svg width="154" height="24" viewBox="0 0 154 24" fill="none" xmlns="http://www.w3.org/2000/svg">
<path d="M50.43 19.2899H33.9L42.28 4.56995L50.43 19.2899ZM35.32 18.4699H49.03L42.27 6.24995L35.32 18.4699Z" fill="#58595B"/>
<path d="M36.2759 6.6979L35.689 7.28479L48.7915 20.3874L49.3784 19.8005L36.2759 6.6979Z" fill="#58595B"/>
<path d="M48.0688 6.70653L34.9551 19.798L35.5415 20.3854L48.6552 7.29392L48.0688 6.70653Z" fill="#58595B"/>
<path d="M126.23 20.29H110.62V4.67004H126.23V20.29ZM111.65 19.25H125.2V5.71004H111.65V19.25Z" fill="#58595B"/>
<path d="M118.42 17.7501C115.51 17.7501 113.15 15.3801 113.15 12.4801C113.15 9.57007 115.52 7.20007 118.42 7.20007C121.33 7.20007 123.7 9.57007 123.7 12.4801C123.7 15.3901 121.33 17.7501 118.42 17.7501ZM118.42 8.24007C116.08 8.24007 114.18 10.1401 114.18 12.4801C114.18 14.8201 116.08 16.7201 118.42 16.7201C120.76 16.7201 122.66 14.8201 122.66 12.4801C122.67 10.1401 120.76 8.24007 118.42 8.24007Z" fill="#58595B"/>
<path d="M111.419 4.90138L110.84 5.4812L125.42 20.0616L126 19.4818L111.419 4.90138Z" fill="#58595B"/>
<path d="M125.422 4.90337L110.841 19.4838L111.421 20.0636L126.001 5.48319L125.422 4.90337Z" fill="#58595B"/>
<path d="M151.2 20.29H135.59V4.67004H151.2V20.29ZM136.62 19.25H150.17V5.70004H136.62V19.25Z" fill="#58595B"/>
<path d="M147.7 11.7001H138.78V12.7301H147.7V11.7001Z" fill="#58595B"/>
<path d="M21.37 20.57L7.53995 20.52L4.44995 8.18L5.44995 7.93L8.34995 19.49L20.57 19.53L23.5499 7.88L24.5499 8.13L21.37 20.57Z" fill="#58595B"/>
<path d="M9.76999 13.4501C9.27999 13.4501 8.83999 13.2101 8.46999 12.7401C7.62999 11.6901 6.25999 12.4401 6.19999 12.4701L5.85999 11.8701C6.52999 11.5001 8.03999 11.1101 8.99999 12.3101C9.23999 12.6101 9.48999 12.7601 9.75999 12.7601C10.35 12.7601 10.9 12.0801 10.91 12.0701C11.56 11.5201 13.02 10.9101 14.23 12.1601C15.21 13.1701 15.86 12.6101 16.33 12.2001L16.4 12.1401C17.15 11.5001 18.84 10.9401 20.2 12.1601C21.28 13.1301 22.72 11.9101 22.73 11.8901L23.18 12.4101C22.53 12.9801 20.96 13.7701 19.74 12.6701C18.59 11.6401 17.23 12.3401 16.85 12.6701L16.78 12.7301C16.34 13.1101 15.16 14.1301 13.73 12.6501C12.66 11.5401 11.45 12.5101 11.4 12.5601C11.42 12.5501 10.7 13.4401 9.76999 13.4501Z" fill="#58595B"/>
<path d="M8.76001 17.99L9.27001 17.92C9.33001 18.21 9.43001 18.42 9.57001 18.55C9.71001 18.68 9.88001 18.74 10.09 18.74C10.33 18.74 10.54 18.66 10.7 18.49C10.87 18.32 10.95 18.11 10.95 17.87C10.95 17.63 10.87 17.44 10.72 17.29C10.57 17.14 10.37 17.06 10.13 17.06C10.03 17.06 9.91001 17.08 9.77001 17.12L9.83001 16.67C9.86001 16.67 9.89001 16.68 9.91001 16.68C10.13 16.68 10.33 16.62 10.5 16.51C10.67 16.4 10.76 16.22 10.76 15.98C10.76 15.79 10.7 15.64 10.57 15.51C10.44 15.39 10.28 15.33 10.08 15.33C9.88001 15.33 9.71001 15.39 9.58001 15.52C9.45001 15.65 9.36001 15.83 9.32001 16.08L8.81001 15.99C8.87001 15.65 9.02001 15.38 9.24001 15.19C9.46001 15 9.74001 14.91 10.07 14.91C10.3 14.91 10.51 14.96 10.7 15.06C10.89 15.16 11.04 15.29 11.14 15.46C11.24 15.63 11.29 15.81 11.29 16C11.29 16.18 11.24 16.34 11.14 16.49C11.04 16.64 10.9 16.76 10.71 16.84C10.96 16.9 11.15 17.02 11.29 17.19C11.43 17.37 11.5 17.6 11.5 17.87C11.5 18.24 11.37 18.55 11.1 18.8C10.83 19.05 10.5 19.18 10.09 19.18C9.72001 19.18 9.42001 19.07 9.18001 18.85C8.93001 18.62 8.79001 18.33 8.76001 17.99Z" fill="#58595B"/>
<path d="M11.72 17.0201C11.72 16.5301 11.77 16.1301 11.87 15.8301C11.97 15.5301 12.12 15.3001 12.32 15.1301C12.52 14.9701 12.77 14.8801 13.08 14.8801C13.3 14.8801 13.5 14.9301 13.67 15.0201C13.84 15.1101 13.98 15.2401 14.09 15.4101C14.2 15.5801 14.29 15.7901 14.35 16.0301C14.41 16.2801 14.44 16.6001 14.44 17.0201C14.44 17.5101 14.39 17.9101 14.29 18.2101C14.19 18.5101 14.04 18.7501 13.84 18.9101C13.64 19.0801 13.39 19.1601 13.08 19.1601C12.68 19.1601 12.36 19.0201 12.13 18.7301C11.85 18.3801 11.72 17.8101 11.72 17.0201ZM12.24 17.0201C12.24 17.7101 12.32 18.1701 12.48 18.3901C12.64 18.6201 12.84 18.7301 13.08 18.7301C13.32 18.7301 13.51 18.6201 13.67 18.3901C13.83 18.1601 13.91 17.7001 13.91 17.0201C13.91 16.3301 13.83 15.8801 13.67 15.6501C13.51 15.4201 13.31 15.3101 13.07 15.3101C12.83 15.3101 12.65 15.4101 12.5 15.6101C12.33 15.8701 12.24 16.3401 12.24 17.0201Z" fill="#58595B"/>
<path d="M14.8 15.6201C14.8 15.4001 14.88 15.2101 15.03 15.0601C15.18 14.9001 15.37 14.8301 15.59 14.8301C15.81 14.8301 16 14.9101 16.15 15.0601C16.3 15.2101 16.38 15.4001 16.38 15.6201C16.38 15.8401 16.3 16.0301 16.15 16.1801C16 16.3301 15.81 16.4101 15.59 16.4101C15.37 16.4101 15.19 16.3301 15.03 16.1801C14.87 16.0301 14.8 15.8401 14.8 15.6201ZM15.11 15.6201C15.11 15.7501 15.16 15.8701 15.25 15.9601C15.34 16.0501 15.46 16.1001 15.59 16.1001C15.72 16.1001 15.83 16.0501 15.93 15.9601C16.02 15.8701 16.07 15.7501 16.07 15.6201C16.07 15.4901 16.02 15.3701 15.93 15.2801C15.84 15.1901 15.72 15.1401 15.59 15.1401C15.46 15.1401 15.34 15.1901 15.25 15.2801C15.16 15.3801 15.11 15.4901 15.11 15.6201Z" fill="#58595B"/>
<path d="M19.37 17.73L19.99 17.81C19.92 18.24 19.75 18.57 19.47 18.81C19.19 19.05 18.85 19.17 18.45 19.17C17.94 19.17 17.53 19 17.23 18.67C16.92 18.34 16.77 17.86 16.77 17.24C16.77 16.84 16.84 16.49 16.97 16.19C17.1 15.89 17.3 15.66 17.58 15.51C17.85 15.36 18.15 15.28 18.46 15.28C18.86 15.28 19.19 15.38 19.45 15.59C19.71 15.79 19.87 16.08 19.94 16.46L19.33 16.55C19.27 16.3 19.17 16.11 19.02 15.99C18.87 15.86 18.69 15.8 18.48 15.8C18.16 15.8 17.91 15.91 17.71 16.14C17.51 16.37 17.41 16.73 17.41 17.22C17.41 17.72 17.51 18.08 17.7 18.3C17.89 18.53 18.14 18.64 18.45 18.64C18.7 18.64 18.9 18.56 19.07 18.41C19.22 18.28 19.32 18.04 19.37 17.73Z" fill="#58595B"/>
<path d="M13.26 14.45C13.14 14.45 13.02 14.43 12.9 14.36C12.8 14.29 12.67 14.15 12.66 13.88C12.66 13.79 12.7 13.64 12.76 13.44C12.59 13.7 12.44 13.9 12.33 13.99L12.34 14C12.31 14.03 12.02 14.29 11.69 14.26C11.57 14.24 11.4 14.18 11.27 13.98C11.1 13.75 11.25 13.17 11.54 12.51C11.28 12.79 11.05 12.98 10.9 13.05C10.7 13.16 10.41 13.22 10.21 13.07C10.04 12.94 9.97999 12.72 10.04 12.4C10.16 11.79 11.49 9.85002 12.29 8.72002C11.9 8.98002 11.44 9.27002 11.07 9.45002C10.84 9.57002 10.51 9.59002 10.35 9.39002C10.16 9.16002 10.27 8.78002 10.69 8.22002C12.5 5.83002 15.02 5.02002 15.04 5.02002C15.13 4.99002 15.41 4.71002 15.65 4.40002L15.92 4.61002C15.76 4.81002 15.36 5.29002 15.11 5.35002C14.82 5.42002 12.54 6.33002 10.96 8.43002C10.58 8.93002 10.58 9.14002 10.61 9.17002C10.64 9.20002 10.79 9.21002 10.91 9.14002C11.67 8.75002 12.89 7.88002 12.9 7.87002L13.14 8.11002C12.41 9.10002 10.49 11.82 10.37 12.45C10.34 12.62 10.35 12.74 10.4 12.78C10.46 12.82 10.6 12.8 10.73 12.74C11 12.6 11.68 11.92 12.32 10.93C12.52 10.57 12.71 10.25 12.86 10L13.16 10.17C13 10.48 12.82 10.79 12.64 11.06C11.88 12.42 11.4 13.58 11.54 13.76C11.62 13.89 11.7 13.89 11.72 13.9C11.87 13.92 12.05 13.78 12.1 13.73L12.16 13.69C12.42 13.43 13.53 11.48 13.92 10.71C13.96 10.62 14 10.54 14.02 10.49L14.33 10.63C14.33 10.63 14.33 10.63 14.33 10.64C13.77 11.81 12.99 13.59 13 13.87C13 14.02 13.06 14.06 13.08 14.07C13.19 14.14 13.38 14.1 13.42 14.08C13.69 13.97 13.74 13.92 13.94 13.54L15.63 10.54L15.94 10.7L14.66 13.57C14.65 13.61 14.62 13.75 14.67 13.82C14.71 13.87 14.81 13.89 14.87 13.88C14.93 13.88 14.94 13.87 15.08 13.78L15.12 13.75C15.34 13.59 16.44 11.55 16.66 11C16.71 10.87 16.85 10.67 17.07 10.36C17.75 9.38002 19.02 7.55002 18.76 6.09002L19.1 6.03002C19.38 7.64002 18.06 9.54002 17.35 10.56C17.17 10.82 17.02 11.04 16.98 11.13C16.81 11.54 15.65 13.81 15.31 14.04L15.27 14.07C15.11 14.18 15.03 14.24 14.85 14.23C14.58 14.23 14.45 14.11 14.38 14.02C14.29 13.89 14.28 13.73 14.3 13.62L14.24 13.73C14.01 14.15 13.91 14.27 13.54 14.42C13.51 14.42 13.39 14.45 13.26 14.45Z" fill="#58595B"/>
<path d="M93.22 20.5301C88.78 20.5301 85.17 16.9201 85.17 12.4801C85.17 8.04005 88.78 4.43005 93.22 4.43005C97.66 4.43005 101.27 8.04005 101.27 12.4801C101.26 16.9201 97.65 20.5301 93.22 20.5301ZM93.22 5.46005C89.35 5.46005 86.2 8.61005 86.2 12.4801C86.2 16.3501 89.35 19.4901 93.22 19.4901C97.09 19.4901 100.23 16.3401 100.23 12.4801C100.23 8.61005 97.08 5.46005 93.22 5.46005Z" fill="#58595B"/>
<path d="M90.6101 16.52V8.79004H93.1101C94.0601 8.79004 94.6801 8.83004 94.9701 8.91004C95.4101 9.03004 95.7801 9.28004 96.0801 9.67004C96.3801 10.06 96.5301 10.56 96.5301 11.17C96.5301 11.64 96.4401 12.04 96.2701 12.37C96.1001 12.69 95.8801 12.95 95.6101 13.13C95.3401 13.32 95.0701 13.44 94.8001 13.5C94.4301 13.57 93.8901 13.61 93.1801 13.61H92.1601V16.52H90.6101ZM92.1701 10.1V12.29H93.0201C93.6301 12.29 94.0401 12.25 94.2501 12.17C94.4601 12.09 94.6201 11.96 94.7401 11.79C94.8601 11.62 94.9201 11.42 94.9201 11.19C94.9201 10.91 94.8401 10.68 94.6701 10.49C94.5101 10.31 94.3001 10.19 94.0401 10.15C93.8501 10.12 93.4801 10.1 92.9201 10.1H92.1701Z" fill="#58595B"/>
<path d="M75.76 19.71H59.78L59.86 19.17C59.87 19.09 61.16 11.32 67.2 11.09H74.77C74.77 9.33 74.78 7.85 74.82 7.38C74.89 6.44 73.44 6.17 73.43 6.17L63.96 6.18V5.25H73.51C74.38 5.39 75.86 6.03 75.75 7.46C75.65 8.8 75.75 19.14 75.75 19.24L75.76 19.71ZM60.9 18.78H74.83C74.82 17.64 74.79 14.67 74.79 12.03H67.24C62.82 12.19 61.29 17.12 60.9 18.78Z" fill="#58595B"/>
<path d="M69.96 15.66C69.96 16.31 69.43 16.83 68.78 16.83C68.13 16.83 67.6 16.3 67.6 15.66C67.6 15.01 68.13 14.48 68.78 14.48C69.44 14.49 69.96 15.01 69.96 15.66Z" fill="#58595B"/>
</svg>
