<svg width="26" height="26" viewBox="0 0 26 26" fill="none" xmlns="http://www.w3.org/2000/svg">
<g clip-path="url(#clip0_201_200)">
<rect x="2" y="2" width="22" height="22" rx="11" fill="#F7C592"/>
<path d="M13.625 7.81818L13.5256 15.1364H12.3722L12.2727 7.81818H13.625ZM12.9489 18.0795C12.7036 18.0795 12.4931 17.9917 12.3175 17.8161C12.1418 17.6404 12.054 17.4299 12.054 17.1847C12.054 16.9394 12.1418 16.7289 12.3175 16.5533C12.4931 16.3776 12.7036 16.2898 12.9489 16.2898C13.1941 16.2898 13.4046 16.3776 13.5803 16.5533C13.7559 16.7289 13.8438 16.9394 13.8438 17.1847C13.8438 17.3471 13.8023 17.4962 13.7195 17.6321C13.6399 17.768 13.5322 17.8774 13.3963 17.9602C13.2637 18.0398 13.1146 18.0795 12.9489 18.0795Z" fill="#222220"/>
<rect x="4" y="4" width="18" height="18" rx="9" stroke="#821232" stroke-width="4"/>
</g>
<rect x="2" y="2" width="22" height="22" rx="11" stroke="#2A4746" stroke-width="3"/>
<defs>
<clipPath id="clip0_201_200">
<rect x="2" y="2" width="22" height="22" rx="11" fill="white"/>
</clipPath>
</defs>
</svg>
