<svg width="18" height="13" viewBox="0 0 18 13" fill="none" xmlns="http://www.w3.org/2000/svg">
<path fill-rule="evenodd" clip-rule="evenodd" d="M16.955 1.25916C17.1893 1.49357 17.321 1.81146 17.321 2.14291C17.321 2.47437 17.1893 2.79225 16.955 3.02666L7.58583 12.3958C7.46202 12.5197 7.31502 12.6179 7.15323 12.6849C6.99145 12.752 6.81804 12.7865 6.64292 12.7865C6.4678 12.7865 6.29439 12.752 6.1326 12.6849C5.97082 12.6179 5.82382 12.5197 5.7 12.3958L1.045 7.74166C0.925614 7.62635 0.830386 7.48842 0.764875 7.33592C0.699363 7.18341 0.664881 7.01939 0.663438 6.85341C0.661996 6.68744 0.693623 6.52284 0.756474 6.36922C0.819326 6.2156 0.912142 6.07603 1.02951 5.95867C1.14687 5.8413 1.28644 5.74849 1.44006 5.68563C1.59368 5.62278 1.75828 5.59116 1.92425 5.5926C2.09023 5.59404 2.25425 5.62852 2.40676 5.69403C2.55926 5.75955 2.69719 5.85477 2.8125 5.97416L6.6425 9.80416L15.1867 1.25916C15.3028 1.143 15.4406 1.05086 15.5923 0.987988C15.744 0.92512 15.9066 0.892761 16.0708 0.892761C16.2351 0.892761 16.3977 0.92512 16.5494 0.987988C16.7011 1.05086 16.8389 1.143 16.955 1.25916Z" fill="#2A4746"/>
</svg>
