<svg width="34" height="34" viewBox="0 0 34 34" fill="none" xmlns="http://www.w3.org/2000/svg">
<rect x="2" y="2" width="30" height="30" rx="15" fill="#F7C592"/>
<rect x="2" y="2" width="30" height="30" rx="15" stroke="#2A4746" stroke-width="3"/>
<rect x="5" y="5" width="24" height="24" rx="12" stroke="#821232" stroke-width="4"/>
<path d="M13.2045 23V21.9773L17.0455 17.7727C17.4962 17.2803 17.8674 16.8523 18.1591 16.4886C18.4508 16.1212 18.6667 15.7765 18.8068 15.4545C18.9508 15.1288 19.0227 14.7879 19.0227 14.4318C19.0227 14.0227 18.9242 13.6686 18.7273 13.3693C18.5341 13.0701 18.2689 12.839 17.9318 12.6761C17.5947 12.5133 17.2159 12.4318 16.7955 12.4318C16.3485 12.4318 15.9583 12.5246 15.625 12.7102C15.2955 12.892 15.0398 13.1477 14.858 13.4773C14.6799 13.8068 14.5909 14.1932 14.5909 14.6364H13.25C13.25 13.9545 13.4072 13.3561 13.7216 12.8409C14.036 12.3258 14.464 11.9242 15.0057 11.6364C15.5511 11.3485 16.1629 11.2045 16.8409 11.2045C17.5227 11.2045 18.1269 11.3485 18.6534 11.6364C19.1799 11.9242 19.5928 12.3125 19.892 12.8011C20.1913 13.2898 20.3409 13.8333 20.3409 14.4318C20.3409 14.8598 20.2633 15.2784 20.108 15.6875C19.9564 16.0928 19.6913 16.5455 19.3125 17.0455C18.9375 17.5417 18.4167 18.1477 17.75 18.8636L15.1364 21.6591V21.75H20.5455V23H13.2045Z" fill="#222220"/>
</svg>
