<svg width="34" height="34" viewBox="0 0 34 34" fill="none" xmlns="http://www.w3.org/2000/svg">
<rect x="2" y="2" width="30" height="30" rx="15" fill="#F7C592"/>
<rect x="2" y="2" width="30" height="30" rx="15" stroke="#2A4746" stroke-width="3"/>
<rect x="5" y="5" width="24" height="24" rx="12" stroke="#821232" stroke-width="4"/>
<path d="M17.1364 23.1591C16.3864 23.1591 15.7178 23.0303 15.1307 22.7727C14.5473 22.5152 14.0833 22.1572 13.7386 21.6989C13.3977 21.2367 13.2121 20.7008 13.1818 20.0909H14.6136C14.6439 20.4659 14.7727 20.7898 15 21.0625C15.2273 21.3314 15.5246 21.5398 15.892 21.6875C16.2595 21.8352 16.6667 21.9091 17.1136 21.9091C17.6136 21.9091 18.0568 21.822 18.4432 21.6477C18.8295 21.4735 19.1326 21.2311 19.3523 20.9205C19.572 20.6098 19.6818 20.25 19.6818 19.8409C19.6818 19.4129 19.5758 19.036 19.3636 18.7102C19.1515 18.3807 18.8409 18.1231 18.4318 17.9375C18.0227 17.7519 17.5227 17.6591 16.9318 17.6591H16V16.4091H16.9318C17.3939 16.4091 17.7992 16.3258 18.1477 16.1591C18.5 15.9924 18.7746 15.7576 18.9716 15.4545C19.1723 15.1515 19.2727 14.7955 19.2727 14.3864C19.2727 13.9924 19.1856 13.6496 19.0114 13.358C18.8371 13.0663 18.5909 12.839 18.2727 12.6761C17.9583 12.5133 17.5871 12.4318 17.1591 12.4318C16.7576 12.4318 16.3788 12.5057 16.0227 12.6534C15.6705 12.7973 15.3826 13.0076 15.1591 13.2841C14.9356 13.5568 14.8144 13.8864 14.7955 14.2727H13.4318C13.4545 13.6629 13.6383 13.1288 13.983 12.6705C14.3277 12.2083 14.7784 11.8485 15.3352 11.5909C15.8958 11.3333 16.5114 11.2045 17.1818 11.2045C17.9015 11.2045 18.5189 11.3504 19.0341 11.642C19.5492 11.9299 19.9451 12.3106 20.2216 12.7841C20.4981 13.2576 20.6364 13.7689 20.6364 14.3182C20.6364 14.9735 20.464 15.5322 20.1193 15.9943C19.7784 16.4564 19.3144 16.7765 18.7273 16.9545V17.0455C19.4621 17.1667 20.036 17.4792 20.4489 17.983C20.8617 18.483 21.0682 19.1023 21.0682 19.8409C21.0682 20.4735 20.8958 21.0417 20.5511 21.5455C20.2102 22.0455 19.7443 22.4394 19.1534 22.7273C18.5625 23.0152 17.8902 23.1591 17.1364 23.1591Z" fill="#222220"/>
</svg>
